<svg xmlns="http://www.w3.org/2000/svg" width="150" height="300" viewBox="0 0 150 300">
  <g stroke="#2a2118" stroke-width="7" stroke-linejoin="round" stroke-linecap="round">
    <path d="M62 86 Q20 40 8 70 Q14 120 6 170 Q40 150 60 150 Z" fill="#e8e4da"/>
    <path d="M88 86 Q130 40 142 70 Q136 120 144 170 Q110 150 90 150 Z" fill="#e8e4da"/>
    <path d="M52 92 Q75 76 98 92 L112 252 L38 252 Z" fill="#f4f1ea"/>
    <path d="M64 110 L72 150 M86 110 L78 150" fill="none" stroke-width="5"/>
    <path d="M60 130 L75 112 L90 130" fill="#e8e4da"/>
    <circle cx="75" cy="58" r="22" fill="#f4f1ea"/>
    <ellipse cx="75" cy="26" rx="22" ry="6" fill="none" stroke="#f3c64b" stroke-width="6"/>
    <path d="M28 252 L122 252 L130 294 L20 294 Z" fill="#d9d3c4"/>
    <path d="M24 270 L126 270" fill="none" stroke="#c8962f" stroke-width="5"/>
  </g>
</svg>
